<svg id="レイヤー_1" data-name="レイヤー 1" xmlns="http://www.w3.org/2000/svg" viewBox="0 0 340.16 49.6"><defs><style>.cls-1{fill:#6786c1;}</style></defs><path class="cls-1" d="M52.18.54v10.2H67.75V49.05h11V10.74H94.33V.54Z" transform="translate(-0.6 0)"/><path class="cls-1" d="M233.57.54H205.83V10.83h27c4,0,5.51,1.81,5.51,6.45V19H216c-8.51,0-12.75,4.26-12.75,13.89v2.29c0,9.89,4.4,13.87,13.22,13.87h32.83V17.15C249.26,4.93,245.22.54,233.57.54Zm-16,38.14c-1.67,0-3.54-.85-3.54-5s1.85-4.89,3.54-4.89h20.77v9.9Z" transform="translate(-0.6 0)"/><path class="cls-1" d="M325.07.54H297.33V10.83h27c4,0,5.51,1.81,5.51,6.46V19H307.46c-8.51,0-12.74,4.26-12.74,13.88v2.29c0,9.9,4.39,13.88,13.21,13.88h32.83V17.16C340.76,4.94,336.72.54,325.07.54Zm-16,38.15c-1.67,0-3.54-.86-3.54-5s1.85-4.89,3.54-4.89h20.77v9.91Z" transform="translate(-0.6 0)"/><path class="cls-1" d="M97.84.54v10.2H113.4V49.05h11V10.74H140V.54Z" transform="translate(-0.6 0)"/><path class="cls-1" d="M251.48.54V10.75H267V49.06h11V10.75h15.56V.54Z" transform="translate(-0.6 0)"/><path class="cls-1" d="M198.94,32.05V17.53c0-12.71-4.93-17-16.05-17h-29.5V49h30C195.21,49,198.94,43.18,198.94,32.05Zm-11.25.21c0,4.65-1.57,6.46-5.53,6.46H164.41V10.87h17.75c4,0,5.53,1.81,5.53,6.45Z" transform="translate(-0.6 0)"/><path class="cls-1" d="M36.64,37.49c-.24-.44-15-29.14-16.76-32C17.8,2.26,15.27,0,10.43,0,5.93,0,.6,2,.6,12.79V49.06H11.47V18.81c0-2.17-.13-5.39-.16-6s0-1,.27-1.19.62.11.83.51,13.87,27.41,16.77,32c2.08,3.27,4.6,5.53,9.45,5.53,4.49,0,9.82-2,9.82-12.8V.52H37.59V30.78c0,2.17.13,5.39.15,6s0,1-.26,1.19S36.85,37.89,36.64,37.49Z" transform="translate(-0.6 0)"/></svg>